<svg width="209" height="22" viewBox="0 0 209 22" fill="none" xmlns="http://www.w3.org/2000/svg">
<path d="M37.6499 22C42.3823 22 46.2186 18.1695 46.2186 13.4443C46.2186 8.71903 42.3823 4.88849 37.6499 4.88849C32.9176 4.88849 29.0813 8.71903 29.0813 13.4443C29.0813 18.1695 32.9176 22 37.6499 22Z" fill="#40BCF4"/>
<path d="M23.1094 22C27.8418 22 31.6781 18.1695 31.6781 13.4443C31.6781 8.71903 27.8418 4.88849 23.1094 4.88849C18.3771 4.88849 14.5408 8.71903 14.5408 13.4443C14.5408 18.1695 18.3771 22 23.1094 22Z" fill="#00E054"/>
<path d="M8.56865 22C13.301 22 17.1373 18.1695 17.1373 13.4443C17.1373 8.71903 13.301 4.88849 8.56865 4.88849C3.83631 4.88849 0 8.71903 0 13.4443C0 18.1695 3.83631 22 8.56865 22Z" fill="#FF8000"/>
<path fill-rule="evenodd" clip-rule="evenodd" d="M15.8391 17.9743C15.0163 16.6606 14.5408 15.1079 14.5408 13.4442C14.5408 11.7806 15.0163 10.2279 15.8391 8.91418C16.6618 10.2279 17.1373 11.7806 17.1373 13.4442C17.1373 15.1079 16.6618 16.6606 15.8391 17.9743Z" fill="white"/>
<path fill-rule="evenodd" clip-rule="evenodd" d="M30.3796 8.91418C31.2023 10.2279 31.6779 11.7806 31.6779 13.4442C31.6779 15.1079 31.2023 16.6606 30.3796 17.9743C29.5568 16.6606 29.0813 15.1079 29.0813 13.4442C29.0813 11.7806 29.5568 10.2279 30.3796 8.91418Z" fill="white"/>
<path fill-rule="evenodd" clip-rule="evenodd" d="M99.838 5.29204C100.445 5.29204 100.859 5.23641 101.411 5.12483C102.432 4.98576 102.818 4.54008 102.983 3.17525C103.066 2.50674 103.121 1.92167 103.149 1.25316H107.287V5.29204H111.095V9.77658H107.287V13.6479C107.287 16.4332 107.701 16.7398 110.074 16.7398H111.095V21.4469H108.556C103.728 21.4469 102.542 19.6923 102.542 14.6509V9.77658H101.2H95.877V13.6479C95.877 16.4332 96.2906 16.7398 98.6632 16.7398H99.6842V21.4469H97.1456C92.3174 21.4469 91.1314 19.6923 91.1314 14.6509V9.77658H88.4276V5.5705C89.0343 5.5705 89.4482 5.51487 89.9999 5.40329C91.0209 5.26422 91.4073 4.81855 91.5726 3.45371C91.6556 2.7852 91.7107 1.92167 91.7379 1.25316H95.877V5.29204H99.838ZM56.563 1.476H61.75V16.4614H70.0545V21.4469H56.563V1.476ZM79.5993 21.8647C74.0538 21.8647 71.4604 18.7453 71.4604 13.7595V13.286C71.4604 8.10544 74.6884 4.95791 79.6819 4.95791C85.3383 4.95791 87.7385 8.66237 87.7385 13.0353V14.8458H76.4542C76.7022 16.7954 77.8062 17.854 79.7373 17.854C81.1444 17.854 81.9171 17.2411 82.3031 16.3223H87.6282C86.7453 19.7201 84.2622 21.8647 79.5993 21.8647ZM76.4542 11.6705H82.7725C82.5514 9.86 81.6137 8.80144 79.7373 8.80144C77.8613 8.80144 76.7852 9.77655 76.4542 11.6705ZM120.447 21.8647C114.902 21.8647 112.308 18.7453 112.308 13.7595V13.286C112.308 8.10544 115.536 4.95791 120.53 4.95791C126.186 4.95791 128.586 8.66237 128.586 13.0353V14.8458H117.302C117.55 16.7954 118.654 17.854 120.585 17.854C121.992 17.854 122.765 17.2411 123.151 16.3223H128.476C127.593 19.7201 125.11 21.8647 120.447 21.8647ZM117.302 11.6705H123.62C123.399 9.86 122.461 8.80144 120.585 8.80144C118.709 8.80144 117.633 9.77655 117.302 11.6705ZM130.654 21.4469V5.29204H134.683L135.372 8.60645C135.897 6.09994 137.524 5.0692 140.394 5.0692H141.304V10.3891H139.429C136.503 10.3891 135.786 11.4199 135.786 14.2886V21.4469H130.654ZM147.87 18.7455L147.483 21.447H143.097V0H148.063V7.88241C148.918 6.04409 150.519 4.95804 152.753 4.95804C156.34 4.98553 158.989 7.46455 158.989 12.9239V13.4252C158.989 18.9123 156.588 21.8645 152.643 21.8645C150.215 21.8645 148.643 20.6391 147.87 18.7455ZM153.995 13.3974V13.0073C153.995 10.4449 152.781 9.1638 151.043 9.1638C149.222 9.1638 147.98 10.5843 147.98 12.9517V13.3139C147.98 16.127 149.194 17.4363 151.015 17.4363C152.864 17.4363 153.995 16.2386 153.995 13.3974ZM160.532 13.7596V13.258C160.532 7.77083 163.899 4.95804 168.616 4.95804C173.417 4.95804 176.673 7.85459 176.673 13.258V13.7596C176.673 19.1352 173.472 21.8645 168.589 21.8645C163.402 21.8645 160.532 19.1352 160.532 13.7596ZM171.679 13.7037V13.258C171.679 10.6121 170.575 9.24724 168.644 9.24724C166.767 9.24724 165.526 10.5564 165.526 13.258V13.7037C165.526 16.1827 166.767 17.4919 168.616 17.4919C170.465 17.4919 171.679 16.2386 171.679 13.7037ZM184.672 16.8792L181.748 21.4469H175.843L181.748 13.0353L176.395 5.292H182.079L184.7 9.38651L187.321 5.292H192.977L187.652 12.9797L193.336 21.4469H187.597L184.672 16.8792ZM203.792 18.6339C202.991 20.5279 201.391 21.7536 198.936 21.7536C195.073 21.7536 192.645 18.9402 192.645 13.3974V12.9236C192.645 7.4924 195.294 4.98556 198.963 4.98556C201.281 4.98556 202.798 5.96067 203.598 7.60398V3.1986e-05H208.537V21.447H204.261L203.792 18.6339ZM203.654 13.3696V13.0074C203.654 10.5565 202.467 9.16383 200.674 9.16383C198.798 9.16383 197.694 10.4727 197.694 13.0074V13.3696C197.694 16.2665 198.88 17.4363 200.591 17.4363C202.44 17.4363 203.654 16.0993 203.654 13.3696Z" fill="white"/>
</svg>
