<svg width="168" height="22" viewBox="0 0 168 22" fill="none" xmlns="http://www.w3.org/2000/svg">
<g clip-path="url(#clip0_15_34)">
<path d="M117.88 21.7327H157.143C158.569 21.7327 159.98 21.4519 161.298 20.9063C162.615 20.3606 163.812 19.5609 164.82 18.5527C165.828 17.5446 166.628 16.3477 167.174 15.0304C167.719 13.7132 168 12.3014 168 10.8756C168.002 9.44825 167.723 8.03444 167.179 6.71507C166.634 5.39569 165.835 4.19663 164.827 3.1865C163.818 2.17637 162.62 1.37499 161.302 0.828211C159.984 0.281436 158.57 -2.05713e-06 157.143 0L117.88 0C116.453 -2.05713e-06 115.04 0.281436 113.721 0.828211C112.403 1.37499 111.205 2.17637 110.196 3.1865C109.188 4.19663 108.389 5.39569 107.844 6.71507C107.3 8.03444 107.021 9.44825 107.023 10.8756C107.023 13.7551 108.167 16.5166 110.203 18.5527C112.239 20.5888 115.001 21.7327 117.88 21.7327ZM6.20584 21.7634H10.9985V4.25192H17.2043V0H0V4.23963H6.20584V21.7634ZM23.4716 21.7634H28.2642V5.06912H28.3257L33.8249 21.7512H37.5115L43.1951 5.06912H43.2565V21.7512H48.0492V0H40.8295L35.7911 14.1935H35.7296L30.722 0H23.4716V21.7634ZM54.7711 0.0737327H61.9601C63.6338 0.0763051 65.3009 0.282636 66.9247 0.688172C68.4035 1.03899 69.797 1.68247 71.023 2.58065C72.2088 3.47224 73.1634 4.63538 73.8064 5.97235C74.5335 7.56077 74.8846 9.29537 74.8326 11.0415C74.8659 12.6501 74.5251 14.2445 73.8372 15.6989C73.1966 17.0078 72.2782 18.1611 71.1459 19.0783C69.987 20.0076 68.6633 20.71 67.2442 21.149C65.7443 21.6253 64.179 21.8637 62.6052 21.8556H54.7711V0.0737327ZM59.5637 17.4009H62.0215C63.0552 17.408 64.0862 17.2946 65.0937 17.063C65.9927 16.8805 66.8428 16.5099 67.5883 15.9754C68.2999 15.4369 68.8659 14.7295 69.235 13.9171C69.6664 12.9343 69.8762 11.8686 69.8495 10.7957C69.8677 9.83432 69.6571 8.88239 69.235 8.01843C68.8518 7.25281 68.2992 6.58459 67.619 6.06452C66.9122 5.53958 66.1144 5.15001 65.2657 4.91551C64.3298 4.6538 63.362 4.52352 62.3902 4.52842H59.5637V17.4009ZM81.7757 0.0737327H89.8863C90.8382 0.0741968 91.7889 0.141954 92.7312 0.276498C93.6251 0.392296 94.4921 0.662575 95.2934 1.07527C96.042 1.46368 96.677 2.0395 97.1367 2.74654C97.6466 3.60934 97.8922 4.6027 97.8433 5.60369C97.8854 6.71834 97.5207 7.81027 96.8172 8.67588C96.0992 9.50756 95.1527 10.1101 94.0952 10.4086V10.4455C94.7756 10.5426 95.4356 10.7502 96.0492 11.0599C96.6157 11.3444 97.1258 11.7296 97.5545 12.1966C97.9792 12.6643 98.307 13.2114 98.5192 13.8065C98.748 14.4365 98.8625 15.1024 98.8571 15.7727C98.894 16.7822 98.6379 17.7809 98.1198 18.6482C97.6378 19.4032 96.9854 20.0345 96.215 20.4916C95.4052 20.9777 94.5177 21.3207 93.5914 21.5054C92.6362 21.7102 91.662 21.8132 90.6851 21.8126H81.7757V0.0737327ZM86.5684 8.76805H90.0399C90.4081 8.77006 90.7751 8.72881 91.1336 8.64516C91.4765 8.57071 91.8032 8.43545 92.0983 8.24578C92.3862 8.06009 92.6246 7.80701 92.7926 7.50845C92.9726 7.16823 93.0615 6.78721 93.0507 6.40246C93.0704 6.01141 92.9765 5.62302 92.7803 5.28418C92.5897 4.99383 92.33 4.75528 92.0246 4.58986C91.6822 4.41795 91.3154 4.29982 90.937 4.23963C90.5624 4.1672 90.1818 4.13017 89.8003 4.12903H86.5438L86.5684 8.76805ZM86.5684 17.7696H90.8694C91.2476 17.7706 91.6248 17.7294 91.9939 17.6467C92.3607 17.5716 92.7093 17.4255 93.02 17.2166C93.33 17.012 93.5886 16.7387 93.7757 16.4178C93.9776 16.0515 94.0773 15.6377 94.0645 15.2197C94.0809 14.7786 93.9465 14.3452 93.6836 13.9908C93.4255 13.6719 93.0918 13.4226 92.7127 13.2657C92.319 13.1017 91.9061 12.9882 91.4839 12.9278C91.0666 12.8685 90.6457 12.8378 90.2243 12.8356H86.5991L86.5684 17.7696Z" fill="url(#paint0_linear_15_34)"/>
</g>
<defs>
<linearGradient id="paint0_linear_15_34" x1="0" y1="10.9124" x2="168" y2="10.9124" gradientUnits="userSpaceOnUse">
<stop stop-color="#90CEA1"/>
<stop offset="0.56" stop-color="#3CBEC9"/>
<stop offset="1" stop-color="#00B3E5"/>
</linearGradient>
<clipPath id="clip0_15_34">
<rect width="168" height="21.8249" fill="white"/>
</clipPath>
</defs>
</svg>
